<svg width="20" height="19" viewBox="0 0 20 19" fill="none" xmlns="http://www.w3.org/2000/svg">
<path d="M6.82031 11.2852C7.53646 12.4883 8.59635 13.0898 10 13.0898C11.4036 13.0898 12.4635 12.4883 13.1797 11.2852H14.6836C14.3112 12.2305 13.6953 13.0039 12.8359 13.6055C12.0052 14.1784 11.0599 14.4648 10 14.4648C8.9401 14.4648 7.98047 14.1784 7.12109 13.6055C6.29036 13.0039 5.6888 12.2305 5.31641 11.2852H6.82031ZM4.80078 14.6367C6.26172 16.069 7.99479 16.7852 10 16.7852C12.0052 16.7852 13.724 16.069 15.1562 14.6367C16.6172 13.1758 17.3477 11.4427 17.3477 9.4375C17.3477 7.43229 16.6172 5.71354 15.1562 4.28125C13.724 2.82031 12.0052 2.08984 10 2.08984C7.99479 2.08984 6.26172 2.82031 4.80078 4.28125C3.36849 5.71354 2.65234 7.43229 2.65234 9.4375C2.65234 11.4427 3.36849 13.1758 4.80078 14.6367ZM3.51172 2.99219C5.31641 1.1875 7.47917 0.285156 10 0.285156C12.5208 0.285156 14.6693 1.1875 16.4453 2.99219C18.25 4.76823 19.1523 6.91667 19.1523 9.4375C19.1523 11.9583 18.25 14.1211 16.4453 15.9258C14.6693 17.7018 12.5208 18.5898 10 18.5898C7.47917 18.5898 5.31641 17.7018 3.51172 15.9258C1.73568 14.1211 0.847656 11.9583 0.847656 9.4375C0.847656 6.91667 1.73568 4.76823 3.51172 2.99219ZM5.78906 8.14844C5.53125 7.86198 5.40234 7.53255 5.40234 7.16016C5.40234 6.78776 5.53125 6.47266 5.78906 6.21484C6.07552 5.92839 6.40495 5.78516 6.77734 5.78516C7.14974 5.78516 7.46484 5.92839 7.72266 6.21484C8.00911 6.47266 8.15234 6.78776 8.15234 7.16016C8.15234 7.53255 8.00911 7.86198 7.72266 8.14844C7.46484 8.40625 7.14974 8.53516 6.77734 8.53516C6.40495 8.53516 6.07552 8.40625 5.78906 8.14844ZM12.2344 8.14844C11.9766 7.86198 11.8477 7.53255 11.8477 7.16016C11.8477 6.78776 11.9766 6.47266 12.2344 6.21484C12.5208 5.92839 12.8503 5.78516 13.2227 5.78516C13.5951 5.78516 13.9102 5.92839 14.168 6.21484C14.4544 6.47266 14.5977 6.78776 14.5977 7.16016C14.5977 7.53255 14.4544 7.86198 14.168 8.14844C13.9102 8.40625 13.5951 8.53516 13.2227 8.53516C12.8503 8.53516 12.5208 8.40625 12.2344 8.14844Z" fill="#8083A3"/>
</svg>
