<svg width="332" height="336" viewBox="0 0 332 336" fill="none" xmlns="http://www.w3.org/2000/svg">
<path d="M318.056 297.494C316.604 296.678 314.785 296.02 312.857 295.582C308.499 294.596 303.641 294.523 298.905 294.462C257.869 293.963 217.114 293.78 176.065 293.78C143.744 293.525 111.435 293.257 79.1141 293.099C63.9178 293.026 48.6848 292.965 33.5374 293.671C27.2635 293.963 20.7334 294.438 15.5459 296.374C10.3584 298.309 7.06284 302.132 9.69928 305.224C14.0812 310.337 28.7648 310.045 37.2479 310.057C102.659 310.154 168.083 309.96 233.494 309.753C255.391 309.68 277.289 309.619 299.15 308.986C304.044 308.84 309.097 308.657 313.491 307.476C317.898 306.307 321.547 303.897 321.279 301.255C321.145 299.819 319.887 298.528 318.056 297.494Z" fill="#D9E0FC"/>
<path d="M320.266 184.252C319.155 184.495 317.885 184.629 316.457 184.629C267.365 184.629 218.285 184.629 169.193 184.617C144.647 184.617 120.101 184.617 95.5675 184.605C84.1428 184.605 38.3219 190.911 33.3541 179.65C32.3044 177.276 32.3044 174.659 32.3044 172.102C32.3044 123.906 32.4386 75.7093 32.4386 27.5127C32.4386 25.8084 32.4386 24.0918 32.4386 22.3875C32.4386 18.784 35.661 15.8623 39.6279 15.8623C93.3094 15.8623 146.979 15.8623 200.66 15.8623C228.404 15.8623 256.148 15.8623 283.904 15.8623C295.585 15.8623 327.565 10.4327 327.565 25.6866C327.565 54.6727 327.552 83.671 327.552 112.657C327.552 127.485 327.552 142.325 327.552 157.153C327.54 166.587 331.886 181.683 320.266 184.252Z" fill="#D9E0FC"/>
<path d="M303.702 174.452C299.223 177.52 290.935 175.779 284.038 175.779C270.453 175.779 256.88 175.779 243.295 175.779C206.543 175.779 169.804 175.779 133.052 175.779C96.019 175.779 58.9986 175.779 21.9659 175.779C20.7209 175.779 19.72 174.781 19.72 173.539C19.7078 144.821 19.5369 116.09 19.4759 87.3719C19.4393 73.0067 19.4393 58.6536 19.5003 44.2884C19.5369 34.8901 15.6921 14.2432 22.0269 6.89015C23.809 4.83276 46.8049 7.3771 49.6733 7.3771C62.0134 7.35275 74.3535 7.3284 86.6815 7.30406C110.629 7.25536 134.577 7.20668 158.525 7.14581C190.7 7.14581 222.887 7.01188 255.062 6.93883C271.991 6.90231 303.482 6.99971 305.863 7.02406C308.926 7.06058 307.608 54.6119 307.632 58.1301C307.791 77.7423 307.693 97.3667 307.51 116.979C307.376 131.624 307.169 146.269 307.01 160.927C306.985 162.874 306.961 164.822 306.961 166.77C306.973 170.702 305.716 173.064 303.702 174.452Z" fill="#2A9FDA"/>
<path d="M297.782 159.892C288.97 159.661 280.133 159.831 271.32 159.831C262.495 159.831 253.67 159.843 244.858 159.843C227.208 159.855 209.57 159.868 191.921 159.88C156.817 159.904 121.7 159.916 86.5961 160.014C76.6972 160.038 66.7859 160.062 56.887 160.099C47.0002 160.123 37.0402 160.001 27.1778 160.695C26.6042 160.732 26.6042 161.535 27.1778 161.584C35.9783 162.205 44.8276 162.095 53.6403 162.168C62.4651 162.241 71.2899 162.217 80.1026 162.241C97.7523 162.29 115.39 162.302 133.04 162.327C168.144 162.375 203.26 162.4 238.364 162.424C248.263 162.436 258.174 162.436 268.073 162.448C277.972 162.461 287.883 162.655 297.782 162.4C299.406 162.363 299.418 159.928 297.782 159.892Z" fill="#F7941E"/>
<path d="M287.639 158.553C287.346 157.652 286.834 156.861 286.126 156.203C285.21 155.302 284.136 154.669 282.891 154.328C282.671 154.255 282.452 154.182 282.244 154.109C281.28 153.805 280.316 153.768 279.364 153.975C278.399 154.024 277.508 154.304 276.678 154.827C276.19 155.205 275.702 155.582 275.214 155.96C274.506 156.617 274.005 157.384 273.725 158.285C273.395 158.845 273.236 159.454 273.236 160.111C273.017 161.073 273.065 162.022 273.371 162.984C273.615 163.556 273.859 164.128 274.103 164.713C274.75 165.796 275.616 166.661 276.703 167.306C276.898 167.44 277.081 167.574 277.276 167.708C278.424 168.365 279.657 168.706 280.975 168.706C281.622 168.621 282.269 168.535 282.928 168.45C284.173 168.097 285.247 167.476 286.162 166.575C286.882 165.918 287.383 165.127 287.676 164.226C288.14 163.349 288.347 162.412 288.311 161.414C288.311 160.367 288.103 159.429 287.639 158.553Z" fill="#F7941E"/>
<path d="M250.387 222.295L49.8809 219.337L50.6743 12.3926L249.801 13.9265L250.387 222.295Z" fill="white" stroke="black" stroke-width="0.5" stroke-miterlimit="10"/>
<path d="M94.8348 175.657C94.2367 183.278 93.6385 190.887 93.0405 198.508C92.955 199.542 92.2227 200.419 91.1241 200.419C87.6088 200.431 84.1057 200.443 80.5904 200.468C77.4413 200.48 74.2922 200.492 71.1431 200.504C70.3131 200.504 69.4465 200.516 68.7019 200.078C67.8841 199.591 67.4935 198.751 67.3837 197.85C67.225 196.377 67.3959 194.819 67.4325 193.334C67.5546 187.052 67.7865 180.77 68.4822 174.513C68.6043 173.381 69.8737 173.125 70.4596 173.782C71.4849 173.466 72.7177 173.612 73.7307 173.612C75.0002 173.612 76.2573 173.624 77.5268 173.624C82.6288 173.649 87.7431 173.673 92.8452 173.673C93.8583 173.673 94.9202 174.586 94.8348 175.657ZM89.3421 196.609C89.8059 190.29 90.2575 183.972 90.7213 177.654C87.7309 177.666 84.7282 177.69 81.7378 177.702C79.8825 177.715 78.0272 177.727 76.1841 177.739C75.2321 177.751 74.2922 177.751 73.3402 177.751C72.9984 177.751 72.6567 177.751 72.3149 177.751C71.9487 178.056 71.4849 178.238 70.9966 178.262C71.0943 180.296 71.1553 182.341 71.1919 184.386C71.2407 187.32 71.1919 190.254 71.1553 193.188C71.1431 193.955 71.1309 194.722 71.1187 195.489C71.1065 195.89 71.1309 196.316 71.1309 196.743C71.2896 196.755 71.4361 196.767 71.5581 196.767L73.5843 196.755C78.8328 196.706 84.0814 196.657 89.3421 196.609Z" fill="#F7941E"/>
<path d="M94.8348 131.223C94.2367 138.844 93.6385 146.452 93.0405 154.073C92.955 155.108 92.2227 155.984 91.1241 155.984C87.6088 155.997 84.1057 156.009 80.5904 156.033C77.4413 156.045 74.2922 156.058 71.1431 156.07C70.3131 156.07 69.4465 156.082 68.7019 155.644C67.8841 155.157 67.4935 154.317 67.3837 153.416C67.225 151.943 67.3959 150.384 67.4325 148.899C67.5546 142.617 67.7865 136.336 68.4822 130.078C68.6043 128.946 69.8737 128.691 70.4596 129.348C71.4849 129.031 72.7177 129.177 73.7307 129.177C75.0002 129.177 76.2573 129.19 77.5268 129.19C82.6288 129.214 87.7431 129.238 92.8452 129.238C93.8583 129.238 94.9202 130.151 94.8348 131.223ZM89.3421 152.174C89.8059 145.856 90.2575 139.538 90.7213 133.219C87.7309 133.231 84.7282 133.256 81.7378 133.268C79.8825 133.28 78.0272 133.292 76.1841 133.304C75.2321 133.304 74.2922 133.317 73.3402 133.317C72.9984 133.317 72.6567 133.317 72.3149 133.317C71.9487 133.621 71.4849 133.804 70.9966 133.828C71.0943 135.861 71.1553 137.906 71.1919 139.951C71.2407 142.885 71.1919 145.819 71.1553 148.753C71.1431 149.52 71.1309 150.287 71.1187 151.054C71.1065 151.456 71.1309 151.882 71.1309 152.308C71.2896 152.32 71.4361 152.332 71.5581 152.332L73.5843 152.32C78.8328 152.271 84.0814 152.223 89.3421 152.174Z" fill="#F7941E"/>
<path d="M94.8348 86.7877C94.2367 94.4085 93.6385 102.017 93.0405 109.638C92.955 110.673 92.2227 111.549 91.1241 111.549C87.6088 111.562 84.1057 111.574 80.5904 111.598C77.4413 111.61 74.2922 111.622 71.1431 111.635C70.3131 111.635 69.4465 111.647 68.7019 111.209C67.8841 110.722 67.4935 109.882 67.3837 108.981C67.225 107.508 67.3959 105.949 67.4325 104.464C67.5546 98.1824 67.7865 91.9007 68.4822 85.6433C68.6043 84.5111 69.8737 84.2555 70.4596 84.9129C71.4849 84.5963 72.7177 84.7424 73.7307 84.7424C75.0002 84.7424 76.2573 84.7546 77.5268 84.7546C82.6288 84.779 87.7431 84.8033 92.8452 84.8033C93.8583 84.8033 94.9202 85.7164 94.8348 86.7877ZM89.3421 107.739C89.8059 101.421 90.2575 95.1024 90.7213 88.7842C87.7309 88.7964 84.7282 88.8207 81.7378 88.8329C79.8825 88.845 78.0272 88.8572 76.1841 88.8694C75.2321 88.8694 74.2922 88.8816 73.3402 88.8816C72.9984 88.8816 72.6567 88.8816 72.3149 88.8816C71.9487 89.1859 71.4849 89.3685 70.9966 89.3929C71.0943 91.4259 71.1553 93.4711 71.1919 95.5163C71.2407 98.4503 71.1919 101.384 71.1553 104.318C71.1431 105.085 71.1309 105.852 71.1187 106.619C71.1065 107.021 71.1309 107.447 71.1309 107.873C71.2896 107.885 71.4361 107.897 71.5581 107.897L73.5843 107.885C78.8328 107.836 84.0814 107.788 89.3421 107.739Z" fill="#F7941E"/>
<path d="M202.906 89.1127C196.498 88.9423 190.077 89.0762 183.669 89.0884C177.322 89.1005 170.963 89.1005 164.616 89.1127C151.788 89.1249 138.959 89.1857 126.143 89.2466C122.567 89.2588 118.99 89.2831 115.414 89.2953C111.789 89.3075 108.115 89.2344 104.502 89.4901C104.038 89.5266 104.038 90.1718 104.502 90.1962C107.688 90.4153 110.922 90.3544 114.12 90.3788C117.33 90.4153 120.528 90.4153 123.739 90.4275C130.086 90.464 136.445 90.4883 142.792 90.5249C155.62 90.5857 168.449 90.5736 181.265 90.5979C188.478 90.6101 195.704 90.7684 202.906 90.5736C203.858 90.5614 203.858 89.137 202.906 89.1127Z" fill="#969696"/>
<path d="M158.147 96.0399C144.293 95.8816 130.439 95.7477 116.586 95.7477C112.631 95.7477 108.664 95.7112 104.709 95.772C103.953 95.7842 103.953 96.9407 104.709 96.9529C118.551 97.172 132.417 96.9651 146.27 96.8799C150.225 96.8555 154.192 96.7338 158.147 96.6851C158.562 96.6851 158.562 96.052 158.147 96.0399Z" fill="#969696"/>
<path d="M200.684 103.405C188.198 103.174 175.699 103.356 163.212 103.38C150.726 103.405 138.227 103.417 125.74 103.441C118.685 103.454 111.643 103.466 104.588 103.587C104.014 103.6 104.014 104.464 104.588 104.476C117.074 104.707 129.573 104.634 142.06 104.647C154.546 104.671 167.045 104.683 179.532 104.707C186.587 104.72 193.629 104.78 200.684 104.647C201.49 104.647 201.49 103.417 200.684 103.405Z" fill="#969696"/>
<path d="M168.339 133.353C164.115 133.073 159.831 133.304 155.596 133.317C151.348 133.329 147.1 133.341 142.853 133.353C134.358 133.377 125.874 133.402 117.379 133.426C112.57 133.438 107.785 133.499 102.976 133.67C102.634 133.682 102.634 134.193 102.976 134.205C111.459 134.485 119.955 134.449 128.45 134.473C136.945 134.497 145.428 134.522 153.924 134.546C156.267 134.558 158.598 134.558 160.942 134.571C163.395 134.583 165.873 134.68 168.327 134.51C169.095 134.473 169.095 133.402 168.339 133.353Z" fill="#969696"/>
<path d="M194.057 143.129C182.217 142.788 170.353 142.922 158.513 142.897C146.783 142.873 135.066 142.861 123.336 142.824L113.339 142.8C110.019 142.788 106.663 142.642 103.343 142.897C102.537 142.958 102.537 144.091 103.343 144.151C106.296 144.383 109.275 144.261 112.228 144.261C115.195 144.249 118.148 144.249 121.114 144.237C127.034 144.224 132.966 144.212 138.886 144.2C150.616 144.176 162.334 144.164 174.063 144.139C180.728 144.127 187.392 144.127 194.057 143.932C194.569 143.908 194.569 143.141 194.057 143.129Z" fill="#969696"/>
<path d="M197.523 180.539C185.158 180.235 172.794 180.381 160.429 180.393C148.065 180.393 135.7 180.405 123.335 180.442C116.415 180.466 109.482 180.551 102.561 180.466C101.755 180.454 101.755 181.72 102.561 181.72C114.926 181.574 127.29 181.781 139.655 181.793C152.019 181.793 164.384 181.805 176.748 181.805C183.669 181.805 190.59 181.817 197.523 181.647C198.231 181.635 198.231 180.563 197.523 180.539Z" fill="#969696"/>
<path d="M122.554 187.064C116.012 187.064 109.482 187.198 102.952 187.259C102.488 187.259 102.488 187.965 102.952 187.965C109.482 188.026 116.024 188.16 122.554 188.16C123.275 188.172 123.275 187.064 122.554 187.064Z" fill="#969696"/>
<path d="M188.674 187.88C181.435 187.405 174.136 187.612 166.886 187.648C159.563 187.685 152.239 187.734 144.915 187.77C140.79 187.795 136.664 187.819 132.551 188.026C132.087 188.05 132.087 188.72 132.551 188.732C139.801 189.097 147.076 189 154.338 189.036C161.662 189.073 168.985 189.122 176.309 189.122C180.435 189.122 184.56 189.146 188.674 188.878C189.32 188.841 189.333 187.928 188.674 187.88Z" fill="#969696"/>
<path d="M160.612 195.05C153.374 194.673 146.075 194.953 138.837 194.977C131.648 195.002 124.434 194.977 117.245 195.233C113.132 195.379 108.994 195.33 104.88 195.342C104.465 195.342 104.465 195.988 104.88 195.988C119.344 196.061 133.796 196.329 148.26 196.389C152.386 196.402 156.511 196.499 160.625 196.28C161.406 196.243 161.406 195.099 160.612 195.05Z" fill="#969696"/>
<path d="M234.226 39.5164C227.244 38.9686 220.067 39.3947 213.061 39.3947C206.445 39.3947 199.83 39.4069 193.226 39.4069C179.776 39.419 166.337 39.419 152.886 39.4312C139.435 39.4434 125.996 39.4677 112.546 39.5286C98.9482 39.5895 85.0946 39.0173 71.5461 40.186C68.58 40.4416 68.5678 44.4712 71.5461 44.739C85.0946 45.9077 98.9482 45.3356 112.546 45.3964C125.996 45.4573 139.435 45.4817 152.886 45.4938C166.337 45.506 179.776 45.506 193.226 45.5182C199.842 45.5182 206.458 45.5303 213.061 45.5303C220.067 45.5303 227.232 45.9564 234.226 45.4086C238.071 45.0921 238.083 39.8208 234.226 39.5164Z" fill="black"/>
<path d="M201.673 56.4991C199.439 54.7339 197.669 55.0504 194.838 55.0504C192.201 55.0504 189.565 55.0504 186.928 55.0504L170.45 55.0626C159.245 55.0747 148.04 55.0747 136.835 55.0869L103.879 55.1112C98.1671 55.1112 92.4548 55.1721 86.7424 55.2452C82.0065 55.306 75.6594 54.393 71.3629 56.5478C70.2278 57.1199 70.2278 58.9339 71.3629 59.506C75.6716 61.673 81.9943 60.7478 86.7424 60.8086C92.2351 60.8817 97.7277 60.9304 103.22 60.9425C114.425 60.9547 125.63 60.9547 136.835 60.9669L169.791 60.9913C175.504 60.9913 181.216 61.0034 186.928 61.0034C189.565 61.0034 192.201 61.0034 194.838 61.0034C197.596 61.0034 199.464 61.2956 201.673 59.5547C202.54 58.8852 202.527 57.1808 201.673 56.4991Z" fill="black"/>
<path d="M150.75 149.763C148.834 149.228 147.308 147.097 146.527 145.332C145.697 143.445 145.856 140.974 147.443 139.659C148.456 138.819 149.859 138.6 151.178 138.734C155.266 139.184 158.416 142.848 159.539 146.805C160.661 150.749 160.185 154.962 159.709 159.04C159.355 162.022 159.001 165.005 158.647 167.988C157.964 173.782 158.733 179.845 158.733 185.688C158.733 186.419 158.757 187.174 159.111 187.807C159.77 188.975 161.26 189.304 162.59 189.511C168.974 190.534 175.54 191.763 182.034 191.532C187.246 191.349 190.224 189.803 194.972 193.48C197.572 195.488 199.562 198.617 199.232 201.88C199.049 203.633 198.219 205.276 197.096 206.652C192.665 212.045 184.756 212.775 177.762 212.605C169.511 212.398 161.272 211.522 153.155 209.988C144.916 208.417 139.167 204.302 138.471 195.598C137.812 187.356 140.388 179.127 142.633 171.299C144.721 164.019 148.797 157.311 150.665 150.092C150.701 149.958 150.726 149.861 150.75 149.763Z" fill="#FBC2AA"/>
<path d="M197.011 197.692C196.95 197.326 196.889 196.961 196.828 196.608C196.303 192.993 195.803 188.476 199.745 187.344C202.345 186.589 206.898 186.93 208.631 184.52C209.192 183.74 209.351 182.766 209.485 181.829C209.693 180.49 209.888 179.139 210.096 177.8C202.54 179.09 199.391 172.346 198.439 166.04C197.463 159.6 197.67 151.565 203.358 147.255C206.983 144.504 212.061 143.846 216.321 145.453C220.58 147.06 223.913 150.834 225.121 155.217C226.012 158.455 224.95 159.636 224.767 162.984C224.547 166.77 224.889 173.307 224.682 177.093C224.535 179.638 224.755 182.608 226.146 184.824C226.781 185.834 227.55 186.699 228.624 187.246C229.405 187.648 231.431 187.429 231.92 187.965C234.69 190.996 237.278 194.21 240.281 196.998C233.189 199.968 225.78 202.086 218.2 203.377C212.891 204.29 202.15 207.419 198.488 201.782C197.682 200.54 197.279 199.128 197.011 197.692Z" fill="#FBC2AA"/>
<path d="M259.822 215.526C259.065 206.189 254.866 196.62 246.334 191.946C243.198 190.229 239.743 189.194 236.277 188.379C234.495 187.952 232.688 187.587 230.906 187.186C228.904 186.735 228.502 187.21 227.135 188.707C224.315 191.824 219.86 193.212 215.673 192.773C213.025 192.506 210.474 191.544 208.203 190.18C205.738 188.695 204.871 186.869 201.746 187.039C192.287 187.575 182.839 188.427 173.429 189.596C174.124 197.777 174.674 209.366 176.383 217.389C181.363 216.89 192.372 215.794 192.36 217.304C192.348 219.605 192.397 221.918 192.47 224.219C192.629 228.711 192.909 233.203 193.092 237.695C193.288 242.467 193.642 247.239 194.069 251.987C194.557 257.405 195.387 262.725 196.595 267.984C208.899 272.074 222.936 271.076 236.13 269.883C239.89 269.542 243.796 269.165 247.055 267.253C256.209 261.872 256.6 245.949 257.906 236.685C258.919 229.551 260.408 222.843 259.822 215.526Z" fill="#2A9FDA"/>
<path d="M165.434 308.572C165.593 308.34 165.764 308.109 165.934 307.89C169.12 303.812 174.625 301.158 179.129 298.759C184.097 296.118 189.65 293.939 195.375 294.267C200.538 294.559 207.703 298.053 208.777 303.507C208.899 304.128 208.948 304.786 208.704 305.358C208.094 306.794 206.153 306.916 204.59 306.928C197.926 306.989 191.518 309.034 185.293 311.238C182.095 312.37 178.909 313.575 175.663 314.61C172.77 315.535 165.739 319.589 163.713 315.377C162.602 313.076 164.152 310.446 165.434 308.572Z" fill="black"/>
<path d="M136.543 253.813C139.24 250.843 143.073 248.919 147.003 248.177C152.52 247.142 158.22 248.14 163.64 249.638C175.113 252.791 185.867 258.099 197.389 261.057C202.503 262.372 205.836 261.885 210.828 261.483C217.163 260.972 223.668 261.592 230.04 261.215C235.996 260.862 242.441 260.399 248.019 262.043C248.751 261.556 249.484 261.081 250.216 260.594C256.441 256.516 262.654 252.462 270.466 253.947C276.605 255.116 282.537 258.22 286.333 263.26C290.373 268.617 289.165 275.617 285.54 280.961C282.537 285.38 278.107 288.643 273.517 291.382C257.686 300.853 240.39 306.66 221.703 305.37C219.201 305.199 216.259 305.163 214.453 307.172C213.782 307.926 213.379 312.053 211.877 311.871C210.022 311.652 206.458 311.14 204.713 310.507C195.265 307.111 185.83 303.702 176.383 300.305C168.083 297.311 159.734 294.304 152.178 289.763C145.636 285.843 139.716 280.535 136.25 273.657C133.748 268.702 131.697 262.177 134.309 257.027C134.919 255.846 135.664 254.775 136.543 253.813Z" fill="#F7941E"/>
<path d="M253.731 268.057C248.422 270.699 242.868 272.391 237.778 275.532C232.701 278.661 227.892 282.313 222.362 284.687C218.786 286.221 213.586 286.817 210.156 288.521" stroke="black" stroke-width="0.5" stroke-miterlimit="10"/>
<path d="M214.575 306.454C214.587 306.441 214.587 306.417 214.599 306.405C215.1 305.261 215.588 304.116 216.088 302.972C217.077 300.695 218.066 298.431 219.042 296.155C219.152 295.899 227.635 300.196 228.368 300.793C228.697 301.061 229.014 301.353 229.222 301.718C229.515 302.217 229.576 302.814 229.649 303.386C229.845 304.993 230.089 306.636 229.783 308.231C229.478 309.826 228.49 311.396 226.952 311.908C225.78 312.297 224.511 312.017 223.314 311.749C221.032 311.226 218.798 310.739 216.552 310.081C215.905 309.887 214.209 309.826 213.745 309.363C213.159 308.791 214.319 307.062 214.575 306.454Z" fill="#FBC2AA"/>
<path d="M224.023 297.895C224.645 297.981 225.292 298.005 225.963 297.944C227.33 297.835 228.673 297.445 230.04 297.469C232.762 297.518 233.946 299.636 235.081 301.779C237.083 305.565 240.696 308.328 243.625 311.372C247.299 315.182 249.423 318.774 248.825 324.228C248.617 326.151 247.836 328.355 245.969 328.878C244.248 329.365 242.551 328.16 241.172 327.028C237.425 323.96 233.665 320.904 229.918 317.836C228.209 316.436 226.464 314.574 224.523 313.527C223.29 312.869 221.886 312.382 220.605 311.737C221.984 307.184 223.144 302.57 224.023 297.895Z" fill="black"/>
<path d="M204.871 270.541C204.188 270.2 203.663 269.579 203.26 268.422C202.577 266.475 202.979 264.174 204.078 262.457C205.494 260.242 208.094 258.537 210.669 258.002C213.318 257.442 215.881 256.504 218.578 255.956C220.519 255.567 222.423 255.031 224.327 254.496C230.15 252.864 236.423 251.622 241.953 249.188C242.295 249.042 242.636 248.871 242.832 248.555C243.088 248.129 242.978 247.593 242.856 247.106C241.001 239.668 239.304 232.193 237.754 224.682C237.229 222.125 236.716 219.544 236.741 216.939C236.79 212.203 238.694 207.516 241.965 204.083C243.967 201.977 246.737 200.285 249.618 200.614C251.986 200.894 254.024 202.525 255.367 204.509C256.71 206.494 257.43 208.795 258.15 211.059C260.567 218.716 263.374 226.471 264.46 234.433C264.741 236.515 264.729 238.621 264.717 240.715C264.68 246.741 264.521 253.144 261.201 258.172C250.265 274.68 224.901 272.647 207.898 271.064C206.629 270.979 205.652 270.93 204.871 270.541Z" fill="#FBC2AA"/>
<path d="M209.68 142.313C206.604 142.775 203.65 144.017 201.173 146.038C198.414 148.29 197.547 150.676 196.974 154.207C196.937 154.438 196.913 154.693 197.047 154.888C197.194 155.095 197.486 155.144 197.743 155.18C202.137 155.704 206.555 156.081 210.986 156.313C211.474 156.337 211.975 156.361 212.426 156.179C213.549 155.728 213.989 154.207 215.136 153.817C215.295 155.29 215.185 156.8 214.831 158.236C214.672 158.869 214.465 159.539 214.672 160.16C215.087 161.413 216.564 161.389 217.516 161.961C218.7 162.667 219.848 164.104 220.299 165.394C220.897 167.099 221.166 168.961 222.216 170.471C222.484 170.86 222.801 171.213 223.107 171.566C223.68 172.224 224.242 172.881 224.815 173.539C225.169 173.271 225.34 172.845 225.487 172.443C226.683 169.229 227.952 166.04 228.709 162.704C229.393 159.709 229.368 156.52 228.587 153.549C228.245 152.21 227.623 150.859 227 149.629C226.659 148.947 226.207 148.229 225.767 147.596C225.633 147.401 224.315 145.685 224.083 145.831C224.376 145.636 224.742 145.271 224.608 144.881C224.449 144.419 223.375 144.747 223.082 144.906C223.253 144.638 223.497 144.407 223.668 144.139C223.839 143.871 223.949 143.518 223.815 143.226C223.729 143.043 223.558 142.909 223.375 142.812C222.899 142.58 222.325 142.641 221.874 142.897C221.398 143.165 220.995 143.652 220.885 144.175C217.272 142.593 213.671 141.716 209.68 142.313Z" fill="black"/>
<path d="M162.26 258.878C172.892 263.674 181.448 272.001 191.115 278.502C200.147 284.565 210.156 289.021 220.104 293.452C219.579 294.584 219.372 295.716 218.859 296.848" stroke="black" stroke-width="0.5" stroke-miterlimit="10"/>
<path d="M207.667 168.389C207.032 170.459 204.493 171.713 202.467 170.97" stroke="#1C1C1B" stroke-width="0.5" stroke-miterlimit="10"/>
<path d="M218.395 167.78C222.313 168.754 224.755 164.639 223.558 161.949C221.898 158.212 216.65 158.832 215.686 162.765" fill="#FBC2AA"/>
<path d="M220.397 161.645C219.665 161.438 218.81 161.56 218.188 161.961C217.565 162.363 217.211 163.02 217.236 163.666" stroke="#1C1C1B" stroke-width="0.5" stroke-miterlimit="10"/>
<path d="M249.569 195.987C242.416 196.742 235.862 201.697 233.213 208.381C230.467 215.32 231.834 223.111 233.238 230.44C237.851 230.306 241.928 230.622 246.517 229.721C252.474 228.553 258.26 226.714 263.862 224.45C262.202 213.847 259.126 203.681 251.534 196.036C250.802 195.281 250.619 195.878 249.569 195.987Z" fill="#2A9FDA"/>
<path d="M168.925 127.412C162.993 130.005 157.622 133.353 152.532 137.346C150.067 139.281 147.736 141.46 145.539 143.688C144.367 144.881 143.256 146.147 142.157 147.401C141.926 146.707 141.694 146.026 141.462 145.344C140.717 143.128 139.875 140.974 138.947 138.831C138.081 136.798 137.129 134.801 136.103 132.841C135.029 130.784 133.992 128.033 131.795 126.998C130.281 126.28 128.926 127.18 128.719 128.763C128.414 131.1 130.269 133.267 131.319 135.24C132.356 137.2 133.32 139.184 134.199 141.217C135.005 143.055 135.749 144.991 136.421 146.914C137.153 148.996 137.666 151.175 138.435 153.233C139.191 155.254 141.828 155.753 143.061 153.829C144.66 151.321 146.906 149.045 148.944 146.878C151.031 144.662 153.216 142.568 155.45 140.499C159.954 136.323 164.751 132.403 169.718 128.787C170.561 128.179 169.865 126.998 168.925 127.412Z" fill="#8EC63D"/>
<path d="M238.156 276.372H177.896C177.017 276.372 176.297 275.653 176.297 274.777C176.297 273.9 177.017 273.182 177.896 273.182H238.156C239.035 273.182 239.755 273.9 239.755 274.777C239.755 275.653 239.035 276.372 238.156 276.372Z" fill="black"/>
<path d="M229.221 274.205H176.48L165.531 247.227C165.177 246.351 165.824 245.389 166.776 245.389H216.625C217.174 245.389 217.662 245.718 217.87 246.229L229.221 274.205Z" fill="black"/>
<path d="M191.823 259.815C192.384 261.276 194.276 262.457 196.046 262.457C197.816 262.457 198.805 261.276 198.243 259.815C197.682 258.354 195.79 257.173 194.02 257.173C192.25 257.173 191.261 258.354 191.823 259.815Z" stroke="white" stroke-width="0.5" stroke-miterlimit="10"/>
<path d="M209.705 177.641C209.802 178.652 209.717 179.662 209.619 180.66C209.68 180.648 209.754 180.624 209.815 180.612C211.89 179.967 213.598 178.287 214.477 176.302C213.025 177.106 211.377 177.556 209.705 177.641Z" fill="black"/>
<path d="M150.848 149.921C148.565 148.363 146.259 146.792 144.416 144.747C144.037 144.333 143.683 143.871 143.586 143.323C143.488 142.775 143.769 142.13 144.306 141.984C144.904 141.825 145.453 142.324 145.917 142.751C147.662 144.37 149.969 145.404 152.349 145.624" fill="white"/>
<path d="M150.848 149.921C148.565 148.363 146.259 146.792 144.416 144.747C144.037 144.333 143.683 143.871 143.586 143.323C143.488 142.775 143.769 142.13 144.306 141.984C144.904 141.825 145.453 142.324 145.917 142.751C147.662 144.37 149.969 145.404 152.349 145.624" stroke="#1C1C1B" stroke-width="0.5" stroke-miterlimit="10"/>
<path d="M230.479 318.908C230.577 318.847 230.674 318.774 230.772 318.701C230.882 318.615 231.004 318.567 231.126 318.506C231.37 318.396 231.602 318.287 231.846 318.189C231.749 318.238 231.639 318.275 231.541 318.323C231.993 318.129 232.432 317.885 232.823 317.593C232.92 317.52 233.006 317.447 233.103 317.362C233.262 317.215 233.421 317.082 233.64 317.021C234.031 316.899 234.519 317.094 234.727 317.447C234.91 317.763 234.898 318.116 234.739 318.433C234.702 318.506 234.654 318.567 234.617 318.64C234.532 318.774 234.446 318.908 234.348 319.029C234.104 319.358 233.848 319.675 233.555 319.955C233.262 320.247 232.945 320.515 232.591 320.722C232.371 320.855 232.139 321.002 231.883 321.05C231.627 321.111 231.358 321.135 231.102 321.16C230.992 321.148 230.882 321.135 230.784 321.111C230.626 321.075 230.491 321.002 230.369 320.892C230.174 320.734 229.991 320.515 229.93 320.259C229.796 319.723 230.015 319.212 230.479 318.908Z" fill="#2A9FDA"/>
<path d="M227.562 315.56C227.623 315.353 227.733 315.17 227.879 315.012C228.148 314.708 228.429 314.403 228.697 314.087C228.819 313.953 228.954 313.868 229.124 313.819C229.283 313.734 229.454 313.697 229.637 313.709C229.82 313.697 229.991 313.746 230.15 313.819C230.308 313.868 230.455 313.965 230.577 314.087C230.65 314.172 230.711 314.269 230.784 314.355C230.907 314.561 230.968 314.781 230.968 315.012C230.955 315.134 230.931 315.243 230.919 315.365C230.858 315.584 230.748 315.779 230.577 315.949C230.272 316.229 229.967 316.497 229.649 316.765C229.539 316.887 229.405 316.972 229.246 317.021C229.1 317.094 228.941 317.13 228.77 317.13C228.6 317.142 228.441 317.106 228.294 317.021C228.136 316.972 228.002 316.887 227.892 316.765C227.831 316.68 227.757 316.595 227.696 316.509C227.587 316.315 227.525 316.108 227.525 315.876C227.525 315.779 227.538 315.669 227.562 315.56Z" fill="#2A9FDA"/>
<path d="M223.949 312.382C224.145 312.09 224.34 311.798 224.535 311.506C224.608 311.372 224.718 311.25 224.84 311.177C224.95 311.067 225.097 311.006 225.243 310.958C225.402 310.909 225.56 310.897 225.719 310.933C225.878 310.946 226.024 310.982 226.158 311.079C226.244 311.14 226.317 311.201 226.403 311.262C226.549 311.408 226.659 311.591 226.708 311.786C226.72 311.895 226.732 311.992 226.757 312.102C226.757 312.321 226.696 312.516 226.598 312.699C226.403 312.991 226.207 313.283 226.012 313.575C225.939 313.709 225.829 313.831 225.707 313.904C225.597 314.013 225.451 314.074 225.304 314.123C225.145 314.172 224.987 314.184 224.828 314.147C224.669 314.135 224.523 314.099 224.389 314.001C224.303 313.94 224.23 313.879 224.145 313.819C223.998 313.672 223.888 313.49 223.839 313.295C223.827 313.186 223.815 313.088 223.803 312.979C223.778 312.772 223.839 312.565 223.949 312.382Z" fill="#2A9FDA"/>
<path d="M181.485 309.57C181.558 309.314 181.753 309.047 181.985 308.925C182.241 308.791 182.547 308.73 182.827 308.815C182.913 308.852 182.998 308.888 183.084 308.925C183.242 309.022 183.377 309.156 183.474 309.314C183.657 309.558 183.853 309.801 184.036 310.045C184.133 310.166 184.243 310.276 184.341 310.386C184.39 310.434 184.438 310.483 184.475 310.532C184.561 310.617 184.646 310.714 184.707 310.824C184.768 310.921 184.817 311.055 184.853 311.165C184.939 311.433 185.012 311.7 185.098 311.968C185.195 312.297 185.061 312.65 184.792 312.857C184.536 313.052 184.145 313.1 183.853 312.918C183.657 312.796 183.474 312.674 183.279 312.553C183.23 312.516 183.181 312.492 183.132 312.455C182.937 312.321 182.778 312.175 182.656 311.968C182.583 311.859 182.522 311.749 182.449 311.64C182.193 311.213 181.875 310.824 181.582 310.422C181.436 310.191 181.424 309.813 181.485 309.57Z" fill="#2A9FDA"/>
<path d="M186.148 307.975C186.221 307.719 186.416 307.452 186.648 307.33C187.026 307.123 187.502 306.965 187.771 307.379C188.198 308.048 188.625 308.718 189.065 309.387C189.407 309.923 189.76 310.544 189.553 311.14C189.492 311.335 189.358 311.518 189.162 311.615C188.894 311.737 188.577 311.652 188.308 311.506C187.844 311.25 187.588 310.799 187.307 310.361C187.234 310.252 187.173 310.142 187.1 310.033C186.843 309.606 186.526 309.217 186.233 308.815C186.099 308.596 186.074 308.219 186.148 307.975Z" fill="#2A9FDA"/>
<path d="M177.2 311.396C177.249 311.238 177.347 311.092 177.469 310.983C177.713 310.751 178.043 310.593 178.384 310.605C178.714 310.617 179.08 310.727 179.3 310.983C179.788 311.567 180.276 312.139 180.752 312.723C180.874 312.845 180.972 312.979 181.021 313.137C181.106 313.296 181.143 313.454 181.131 313.636C181.143 313.819 181.094 313.977 181.021 314.136C180.972 314.294 180.874 314.44 180.752 314.55C180.508 314.781 180.179 314.939 179.837 314.927C179.507 314.915 179.141 314.805 178.921 314.55C178.433 313.965 177.945 313.393 177.469 312.809C177.347 312.687 177.249 312.553 177.2 312.395C177.115 312.236 177.078 312.078 177.091 311.896C177.078 311.713 177.115 311.555 177.2 311.396Z" fill="#2A9FDA"/>
<path d="M284.295 269.067C283.734 270.187 284.027 271.587 283.49 272.72C283.099 273.56 282.318 274.144 281.781 274.911C280.951 276.104 280.817 277.784 281.61 279.001C282.391 280.219 284.112 280.791 285.418 280.146C286.456 279.634 287.054 278.514 287.469 277.431C288.323 275.191 289.226 271.685 288.494 269.299C287.884 267.363 285.345 266.949 284.295 269.067Z" fill="black"/>
<path d="M134.663 260.728C135.603 259.974 136.994 259.791 138.081 260.351C139.155 260.911 139.826 262.189 139.594 263.37C139.472 264.015 139.106 264.624 139.082 265.281C139.045 266.121 139.558 266.888 139.826 267.692C140.229 268.885 140.058 270.297 139.216 271.222C138.374 272.16 136.848 272.464 135.798 271.782C134.687 271.052 134.407 269.579 134.199 268.264C133.833 265.902 132.38 262.554 134.663 260.728Z" fill="black"/>
<path d="M194.435 214.59C194.325 214.48 194.105 214.456 193.996 214.59C193.703 214.955 193.385 215.32 193.117 215.697C192.982 215.88 192.848 216.063 192.714 216.245C192.58 216.428 192.421 216.61 192.299 216.817C192.152 217.061 192.482 217.304 192.69 217.11C192.848 216.951 192.995 216.769 193.141 216.598C193.288 216.428 193.434 216.257 193.581 216.087C193.886 215.746 194.154 215.381 194.435 215.028C194.533 214.894 194.557 214.723 194.435 214.59Z" fill="black"/>
<path d="M240.183 230.208C239.255 230.221 238.352 230.403 237.485 230.72C237.217 228.881 236.948 227.055 236.667 225.217C236.374 223.281 236.02 221.346 235.752 219.398C235.74 219.301 235.569 219.325 235.581 219.422C235.801 221.407 235.935 223.391 236.167 225.375C236.399 227.323 236.655 229.271 236.924 231.219C236.948 231.377 237.168 231.487 237.302 231.438C238.218 231.061 239.17 230.866 240.17 230.841C240.598 230.829 240.598 230.208 240.183 230.208Z" fill="black"/>
<path d="M107.212 292.722C105.467 295.96 101.756 297.53 98.3506 298.322C97.3253 298.565 96.2878 298.748 95.2503 298.942C94.4325 299.089 93.5659 299.186 92.7847 299.49C91.0026 300.172 92.9556 301.268 93.8588 301.669C94.3959 301.913 94.5302 302.692 94.2494 303.167C93.9199 303.702 93.2974 303.8 92.7481 303.556C92.0036 303.216 91.1858 302.716 90.6121 302.071L89.4525 305.967H71.9493L70.5822 281.278L96.9714 280.84L96.2756 283.165C99.1928 282.325 102.781 282.009 105.393 283.762C108.347 285.758 108.835 289.69 107.212 292.722ZM104.209 285.758C101.78 284.054 98.2285 284.699 95.6165 285.551C95.5921 285.563 95.5677 285.576 95.5432 285.576L91.9914 297.445C92.6017 297.214 93.273 297.056 93.871 296.934C97.2887 296.24 101.158 295.753 103.807 293.245C105.796 291.37 106.87 287.633 104.209 285.758Z" fill="#F7941E"/>
<path d="M91.9058 286.951C91.3566 288.875 90.8073 290.786 90.3313 292.721C90.2337 293.111 90.8073 293.257 90.9294 292.88C91.5519 290.981 92.1011 289.057 92.6504 287.146C92.7846 286.683 92.0401 286.488 91.9058 286.951Z" fill="black"/>
<path d="M89.4282 296.204C89.1475 297.165 88.8667 298.115 88.586 299.077C88.3053 300.038 88.0978 301.012 87.8537 301.974C87.756 302.376 88.3419 302.534 88.464 302.144C88.7691 301.195 89.1109 300.245 89.3794 299.296L90.185 296.411C90.3193 295.924 89.5625 295.717 89.4282 296.204Z" fill="black"/>
<path d="M88.4152 293.44C88.3175 293.416 88.1832 293.465 88.1588 293.586C88.0856 294 88.0246 294.414 87.9513 294.816C87.9391 294.925 87.9758 295.047 88.0978 295.071C88.1955 295.096 88.3298 295.047 88.3542 294.925C88.4274 294.511 88.4884 294.098 88.5616 293.696C88.5739 293.586 88.525 293.465 88.4152 293.44Z" fill="black"/>
<path d="M260.628 251.646C260.469 253.911 259.419 256.017 257.869 257.648C257.686 257.843 257.967 258.111 258.162 257.94C259.932 256.346 260.908 254.02 260.982 251.646C260.982 251.415 260.64 251.427 260.628 251.646Z" fill="black"/>
<path d="M145.831 201.916C144.891 201.49 143.951 201.052 143.012 200.638C142.816 200.553 142.633 200.845 142.841 200.93C143.781 201.368 144.72 201.782 145.66 202.208C145.856 202.294 146.039 202.001 145.831 201.916Z" fill="black"/>
<path d="M83.8865 230.123C81.4331 233.215 78.4427 235.845 75.794 238.766C72.9866 241.859 70.8262 245.474 68.0189 248.566C65.5777 251.269 62.6605 253.545 59.4625 255.286C57.2044 256.516 51.9437 259.474 49.2584 258.817C44.0587 257.526 47.9524 248.798 49.588 245.925C51.5409 242.479 54.2872 239.497 57.1922 236.831C60.2315 234.055 63.5271 231.584 66.7983 229.1C70.4722 226.3 74.134 223.512 77.808 220.712C78.699 220.043 79.5657 219.337 80.4811 218.692C81.2379 218.156 82.0679 217.718 82.9955 217.608C84.5945 217.438 86.047 218.485 86.816 219.824C88.8299 223.342 86.0347 227.42 83.8865 230.123Z" fill="#F7941E"/>
<path d="M28.2521 235.711C28.9966 231.718 30.62 227.944 31.5477 223.999C32.7805 218.765 32.7805 213.323 33.7447 208.04C34.709 202.756 36.8817 197.339 41.2758 194.246C42.4964 193.394 43.8878 192.725 45.3647 192.615C48.0378 192.408 50.5889 194.064 52.1024 196.279C53.6037 198.483 54.2262 201.173 54.5924 203.827C56.0449 214.26 53.9943 225.156 48.8312 234.347C47.2201 237.22 45.3159 239.923 43.9122 242.893C42.0447 246.826 41.0683 251.16 40.873 255.506C40.7875 257.393 40.8241 259.365 39.9941 261.069C39.2007 262.725 36.2958 265.245 34.294 264.186C32.5119 263.236 31.2792 257.648 30.6445 255.846C28.4108 249.419 26.9827 242.504 28.2521 235.711Z" fill="#F7941E"/>
<path d="M10.749 235.638C10.3828 233.69 10.0777 231.45 11.3593 229.94C13.1291 227.846 16.6933 228.711 18.6096 230.671C20.8188 232.923 21.7343 236.149 22.015 239.29C22.2957 242.431 22.0394 245.596 22.2836 248.725C22.6619 253.533 24.2243 258.147 25.2374 262.858C26.165 267.144 24.4074 270.065 21.2217 265.829C19.0612 262.968 17.4378 259.657 16.1074 256.345C13.4587 249.698 12.0794 242.625 10.749 235.638Z" fill="#F7941E"/>
<path d="M70.4845 232.655C69.5203 234.408 68.434 236.052 67.1401 237.573C65.8463 239.083 64.4182 240.483 62.9535 241.834C60.0118 244.537 56.8383 246.996 54.0432 249.857C52.7005 251.232 51.4433 252.693 50.3692 254.288C49.112 256.151 48.1843 258.184 47.4764 260.314C46.6342 262.834 45.9995 265.427 45.3038 267.996C44.5714 270.674 43.8391 273.365 43.1067 276.043C42.3134 278.965 41.52 281.874 40.8853 284.832C40.5801 286.269 40.3116 287.718 40.0918 289.179C39.9942 289.86 39.921 290.554 39.8477 291.248C39.8111 291.625 39.7867 291.991 39.7623 292.368C39.7501 292.514 39.7501 292.66 39.7501 292.806C39.7867 292.465 39.8478 292.125 39.8844 291.808C39.982 291.041 40.0919 290.274 40.214 289.507C40.4215 288.205 40.6778 286.914 40.9585 285.636C41.5322 283.055 42.2401 280.523 42.9481 277.978C44.4006 272.756 45.7798 267.509 47.3177 262.323C48.0135 259.985 48.8435 257.685 50.1129 255.578C51.126 253.911 52.3466 252.389 53.677 250.965C56.3989 248.067 59.5236 245.596 62.5263 242.991C65.7975 240.142 69.2151 237.001 71.1436 233.045C71.3511 232.594 70.7287 232.217 70.4845 232.655Z" fill="#1C1C1B"/>
<path d="M39.7136 293.403C39.738 293.208 39.738 293.001 39.7502 292.794C39.7136 293.001 39.7014 293.208 39.7136 293.403Z" fill="#1C1C1B"/>
<path d="M39.7258 293.768C39.7136 293.646 39.7136 293.525 39.7136 293.403C39.7014 293.525 39.677 293.646 39.6526 293.756C39.6281 293.817 39.7258 293.817 39.7258 293.768Z" fill="#1C1C1B"/>
<path d="M38.1632 241.067C38.5172 236.405 39.3473 231.766 40.9584 227.36C41.0073 227.226 40.7998 227.165 40.751 227.299C37.7849 235.09 37.3455 243.478 37.4431 251.732C37.492 255.98 37.675 260.229 37.7116 264.478C37.7605 268.885 37.6018 273.28 37.2234 277.662C36.8206 282.3 36.2348 286.914 35.6245 291.528C30.5346 280.779 25.8841 269.822 21.7585 258.671C20.5501 255.396 19.3784 252.097 18.2554 248.786C18.109 248.36 17.4376 248.542 17.5719 248.968C21.5266 260.704 26.0306 272.257 31.0838 283.566C32.5119 286.756 33.9766 289.921 35.5024 293.074C35.6855 293.464 36.1859 293.208 36.2225 292.88C37.3577 284.005 38.4196 275.118 38.3586 266.158C38.2975 257.819 37.5285 249.443 38.1632 241.067Z" fill="#1C1C1B"/>
<path d="M21.429 279.293C23.382 288.266 24.7124 297.664 23.3087 306.697C26.4578 306.709 42.3377 306.794 47.452 306.746C47.3909 305.954 47.3299 305.175 47.2933 304.384C47.0003 298.784 47.3665 293.147 49.0387 287.766C49.4415 286.464 50.2837 282.227 50.8208 280.961L50.7231 279.293H21.429Z" fill="#2A9FDA"/>
<path d="M51.9438 274.314L20.538 274.363C20.2695 274.363 20.0133 274.387 19.7569 274.436V281.68C20.0133 281.728 20.2695 281.753 20.538 281.753L51.2847 281.692L51.9438 274.314Z" fill="#1A0400"/>
<path d="M46.2437 285.307C45.8043 285.819 45.4625 286.464 45.1574 287.06C44.8522 287.657 44.5959 288.29 44.3517 288.923C43.8635 290.226 43.5706 291.54 43.4363 292.916C43.3875 293.488 44.3518 293.634 44.4616 293.05C44.6935 291.784 44.9986 290.505 45.4136 289.276C45.6211 288.667 45.8653 288.071 46.1338 287.474C46.3901 286.89 46.7197 286.318 46.9638 285.721C47.1225 285.332 46.5122 284.991 46.2437 285.307Z" fill="#1C1C1B"/>
<path d="M44.0221 296.544C44.0343 296.13 43.3874 296.13 43.3752 296.544C43.3019 298.638 42.8992 300.707 42.9602 302.813C42.9846 303.483 43.9122 303.446 43.9733 302.813C44.2052 300.72 43.9489 298.638 44.0221 296.544Z" fill="#1C1C1B"/>
<path d="M41.9838 304.907C39.8111 304.554 37.5775 304.445 35.3926 304.713C34.6603 304.798 34.7945 305.808 35.5269 305.711C37.6385 305.431 39.7746 305.37 41.8862 305.614C42.289 305.662 42.3866 304.968 41.9838 304.907Z" fill="#1C1C1B"/>
<path d="M297.575 213.299C295.378 214.273 292.619 216.087 292.29 218.68C292.192 219.447 290.996 219.787 290.813 218.874C290.532 217.487 289.909 216.22 288.884 215.222C287.822 214.175 286.394 213.725 285.247 212.787C284.893 212.495 285.088 211.826 285.528 211.74C287.773 211.302 290.19 210.073 291.191 207.979C291.081 207.601 290.996 207.2 290.959 206.786C290.91 206.226 291.423 205.763 291.936 205.678C292.509 205.593 292.985 205.958 293.168 206.481C293.657 207.906 294.352 209.16 295.219 210.328C295.951 210.961 296.781 211.509 297.563 212.045C297.965 212.337 298.112 213.067 297.575 213.299Z" fill="#D9E0FC"/>
<path d="M305.948 227.567C305.423 227.056 304.862 226.569 304.312 226.094C304.605 225.948 304.911 225.789 305.204 225.631C305.594 225.412 305.753 224.852 305.509 224.475C305.24 224.049 304.788 223.988 304.349 224.17C304.215 224.231 304.081 224.292 303.959 224.353C304.117 223.379 304.288 222.393 304.508 221.419C304.679 220.652 303.519 220.323 303.324 221.09C303.043 222.21 302.726 223.33 302.421 224.438C301.896 223.988 301.371 223.525 300.846 223.075C300.565 222.831 300.15 222.807 299.882 223.075C299.613 223.342 299.625 223.769 299.882 224.036C300.382 224.572 300.883 225.108 301.371 225.656C301.127 225.789 300.87 225.923 300.639 226.082C300.248 226.325 299.821 226.52 299.406 226.727C299.04 226.909 298.93 227.433 299.125 227.774C299.345 228.151 299.796 228.236 300.175 228.042C300.553 227.847 300.944 227.628 301.334 227.482C301.456 227.433 301.566 227.384 301.676 227.336C301.615 227.579 301.554 227.823 301.505 228.054C301.31 228.869 301.017 229.709 300.98 230.549C300.931 231.73 302.677 231.913 303.006 230.817C303.226 230.063 303.226 229.235 303.324 228.456C303.348 228.261 303.385 228.066 303.409 227.859C303.763 228.236 304.129 228.614 304.508 228.991C304.886 229.356 305.57 229.405 305.948 228.991C306.314 228.602 306.351 227.956 305.948 227.567Z" fill="#D9E0FC"/>
<path d="M30.266 60.6503C28.6671 59.9442 27.4831 58.6781 26.8606 57.059C26.6409 56.4746 25.8475 56.4381 25.64 57.059C25.3715 57.8503 24.9077 58.5564 24.3828 59.1894C24.3584 59.2259 24.334 59.2625 24.3096 59.2868C23.8335 59.6885 23.2843 60.0294 22.6862 60.2242C22.2956 60.3459 22.2712 60.9303 22.6862 61.0398C23.504 61.259 24.2119 61.5877 24.81 62.1964C25.3837 62.7929 25.7498 63.5233 25.8841 64.3268C25.994 64.9842 26.9949 64.7042 26.8972 64.0468C26.7874 63.3529 27.5197 62.8416 28.0446 62.5616C28.7647 62.172 29.5337 61.8433 30.2905 61.5025C30.5956 61.3685 30.5956 60.7964 30.266 60.6503Z" fill="#D9E0FC"/>
<path d="M22.0391 43.7164C22.4175 43.8747 22.9058 44.2034 22.7349 44.5686C22.6372 44.7756 22.3931 44.8486 22.1734 44.9095C19.8787 45.4695 15.6433 46.346 15.7897 49.5356C15.8142 50.2173 14.7888 50.3269 14.618 49.6938C14.0199 47.3564 12.5918 45.2382 10.4191 44.1182C9.93089 43.8625 10.1994 43.193 10.6755 43.1564C11.8961 43.0712 13.0556 42.5721 13.9832 41.793C15.094 40.8677 15.3747 40.3443 15.6554 38.9808C15.7653 38.433 16.0827 37.8608 16.632 37.7269C16.7296 37.7025 16.8517 37.6903 16.9493 37.739C17.1446 37.8121 17.23 38.0434 17.291 38.2382C18.0478 40.4295 19.5125 42.4504 21.5631 43.5095C21.734 43.5704 21.8805 43.6434 22.0391 43.7164Z" fill="#D9E0FC"/>
<path d="M270.441 77.0488C269.867 76.6957 268.879 76.5983 268.476 76.0383C267.756 75.0157 269.513 75.0522 270.002 74.9183C270.905 74.6748 271.637 73.9809 272.126 73.1774C272.614 72.374 272.882 71.4609 273.139 70.5601C273.749 70.8888 273.871 71.6679 274.127 72.3131C274.567 73.4088 275.568 74.2122 276.703 74.5044C277.106 74.6018 279.29 75.0766 277.777 75.8557C276.764 76.367 275.616 76.8053 274.786 77.6088C274.262 78.1201 273.48 80.567 272.882 80.4696C272.614 80.4331 272.418 80.214 272.296 79.9705C272.187 79.727 272.138 79.4592 272.065 79.2035C271.93 78.7409 271.711 78.3027 271.405 77.9253C271.149 77.5844 270.819 77.2922 270.441 77.0488Z" fill="#D9E0FC"/>
<path d="M13.5683 82.0275C11.0417 82.8431 9.63803 85.3022 9.01553 87.7127C8.83245 88.3944 7.72169 88.2605 7.77051 87.5422C7.84375 86.264 7.36772 85.0466 6.54992 84.0727C5.57345 82.904 4.38948 82.5509 3.03462 81.9422C2.83933 81.857 2.60741 81.7353 2.57079 81.5162C2.53418 81.3092 2.70506 81.1144 2.87594 80.9927C3.44962 80.6031 4.19419 80.6396 4.87772 80.5057C6.51331 80.2014 7.89256 78.8257 8.22212 77.2066C8.29536 76.8657 8.31978 76.5005 8.46626 76.184C8.61273 75.8675 8.94228 75.5996 9.29625 75.6483C9.72345 75.7092 9.94311 76.1718 10.0896 76.5736C10.3825 77.3892 10.5779 78.1562 11.2004 78.777C11.9449 79.5196 12.8481 80.104 13.7513 80.6153C14.3494 80.9562 14.1786 81.8327 13.5683 82.0275Z" fill="#D9E0FC"/>
</svg>
