<svg width="40" height="40" viewBox="0 0 40 40" fill="none" xmlns="http://www.w3.org/2000/svg">
<rect x="0.5" y="0.5" width="39" height="39" rx="9.5" fill="white" stroke="#ECEEF5"/>
<path d="M18.9453 23.4453C19.25 23.1406 19.6016 22.9883 20 22.9883C20.3984 22.9883 20.75 23.1406 21.0547 23.4453C21.3594 23.75 21.5117 24.1016 21.5117 24.5C21.5117 24.8984 21.3594 25.25 21.0547 25.5547C20.75 25.8594 20.3984 26.0117 20 26.0117C19.6016 26.0117 19.25 25.8594 18.9453 25.5547C18.6406 25.25 18.4883 24.8984 18.4883 24.5C18.4883 24.1016 18.6406 23.75 18.9453 23.4453ZM18.9453 18.9453C19.25 18.6406 19.6016 18.4883 20 18.4883C20.3984 18.4883 20.75 18.6406 21.0547 18.9453C21.3594 19.25 21.5117 19.6016 21.5117 20C21.5117 20.3984 21.3594 20.75 21.0547 21.0547C20.75 21.3594 20.3984 21.5117 20 21.5117C19.6016 21.5117 19.25 21.3594 18.9453 21.0547C18.6406 20.75 18.4883 20.3984 18.4883 20C18.4883 19.6016 18.6406 19.25 18.9453 18.9453ZM21.0547 16.5547C20.75 16.8594 20.3984 17.0117 20 17.0117C19.6016 17.0117 19.25 16.8594 18.9453 16.5547C18.6406 16.25 18.4883 15.8984 18.4883 15.5C18.4883 15.1016 18.6406 14.75 18.9453 14.4453C19.25 14.1406 19.6016 13.9883 20 13.9883C20.3984 13.9883 20.75 14.1406 21.0547 14.4453C21.3594 14.75 21.5117 15.1016 21.5117 15.5C21.5117 15.8984 21.3594 16.25 21.0547 16.5547Z" fill="#8083A3"/>
</svg>
